<svg
  xmlns="http://www.w3.org/2000/svg"
  className="w-7 h-7 text-blue-700 drop-shadow-md"
  fill="currentColor"
  viewBox="0 0 24 24"
>
  <path d="M12 1.75c-.26 0-.52.07-.75.21l-7 4.38a1.5 1.5 0 0 0-.75 1.29v4.5c0 5.25 3.59 9.91 8.5 11.12 4.91-1.21 8.5-5.87 8.5-11.12v-4.5a1.5 1.5 0 0 0-.75-1.29l-7-4.38a1.5 1.5 0 0 0-.75-.21zM12 3.44l7 4.38v4.5c0 4.25-2.92 8.05-7 9.19-4.08-1.14-7-4.94-7-9.19v-4.5l7-4.38z"/>
  <path d="M10.03 13.47a.75.75 0 0 0-1.06 1.06l2 2a.75.75 0 0 0 1.06 0l4-4a.75.75 0 0 0-1.06-1.06l-3.47 3.47-1.47-1.47z"/>
</svg>
